Motion_pl15
version=1
nRows=16
nColumns=43
inDegrees=yes
endheader
time	pelvis_tilt	pelvis_list	pelvis_rotation	pelvis_tx	pelvis_ty	pelvis_tz	hip_flexion_r	hip_adduction_r	hip_rotation_r	knee_angle_r	ankle_angle_r	subtalar_angle_r	mtp_angle_r	hip_flexion_l	hip_adduction_l	hip_rotation_l	knee_angle_l	ankle_angle_l	subtalar_angle_l	mtp_angle_l	lumbar_extension	lumbar_bending	lumbar_rotation	neck_flexion	neck_lateral_bending	neck_rotation	arm_flex_r	arm_add_r	arm_rot_r	elbow_flex_r	pro_sup_r	wrist_flex_r	wrist_dev_r	hand_finger_flex_r	arm_flex_l	arm_add_l	arm_rot_l	elbow_flex_l	pro_sup_l	wrist_flex_l	wrist_dev_l	hand_finger_flex_l
      0.61500000	      1.25403180	    -16.72596385	     90.58569791	      0.04690618	      1.90970465	      1.34259985	     55.12765261	      3.50659004	      1.37395582	    -83.20903069	     -6.64138106	    -15.45115052	      8.84271865	     60.53543676	     -9.26372589	     -3.60066222	    -76.74508499	     -6.44016534	     -4.10688563	     27.57147058	    -37.10864152	     -0.46713733	      0.05612733	     13.57615364	     -0.99633412	      2.68609616	     87.01060403	     -7.77399866	     19.22517896	     67.31951812	    108.92783792	      0.78510087	     10.77154317	     33.57276080	     89.06211557	    -20.60306704	     24.17815595	     71.39179853	    100.75964862	     -5.08519675	      7.60827289	     24.95252435
      0.61750000	      1.20058183	    -16.64946539	     90.48341626	      0.04690479	      1.90808551	      1.33824672	     55.30196680	      3.43454628	      1.22275359	    -82.57596317	     -6.63030895	    -15.23195331	      8.98146340	     60.44198062	     -9.28113370	     -3.71586918	    -76.02380485	     -6.71581211	     -3.98681049	     27.57473643	    -37.18823950	     -0.58411455	      0.06474992	     13.49020460	     -0.99458838	      2.68211017	     86.13439645	     -8.04755460	     19.42964624	     67.48856792	    108.84171832	      0.86751144	     10.79399218	     33.56933339	     88.32781990	    -20.87927009	     24.21760333	     71.49999374	    100.77383322	     -5.03739491	      7.65532741	     24.96328477
      0.62000000	      1.18438570	    -16.62566535	     90.41158925	      0.04677869	      1.90667272	      1.33432087	     55.49080991	      3.40359966	      1.10031141	    -81.82748896	     -6.61570015	    -15.09544095	      9.05108936	     60.37946538	     -9.28059569	     -3.80939507	    -75.20205368	     -6.84134687	     -3.90616908	     27.57543388	    -37.26151318	     -0.64002584	      0.10149620	     13.52170329	     -0.97724839	      2.67581258	     85.43501547	     -8.25717620	     19.61347818	     67.38773595	    108.81921884	      0.93657917	     10.85073214	     33.57185336	     87.73038987	    -21.08875056	     24.31958749	     71.40092548	    100.78603534	     -4.99876721	      7.71604084	     24.97136885
      0.62250000	      1.10129717	    -16.58283533	     90.28556865	      0.04674537	      1.90495087	      1.32997522	     55.68484369	      3.32231036	      1.00342437	    -81.18379663	     -6.61910407	    -14.78459566	      9.23880145	     60.29048754	     -9.30056922	     -3.97967907	    -74.45773609	     -7.20100747	     -3.70304876	     27.57924412	    -37.30798641	     -0.78762238	      0.11771313	     13.44038977	     -0.95790761	      2.66019781	     84.52634524	     -8.56230817	     19.80357936	     67.59089073	    108.74616517	      1.00468415	     10.88582901	     33.54176547	     86.93802158	    -21.33695366	     24.28231755	     71.52407760	    100.77227518	     -5.00941352	      7.76502719	     24.95710586
      0.62500000	      1.08065521	    -16.56511013	     90.21223881	      0.04664272	      1.90333368	      1.32605402	     55.87025605	      3.29971032	      0.89556692	    -80.41340753	     -6.62572065	    -14.63386668	      9.30757640	     60.22501872	     -9.29889537	     -4.07637489	    -73.62534831	     -7.31361439	     -3.60892035	     27.58019186	    -37.36639509	     -0.85172345	      0.15528680	     13.46972328	     -0.93859737	      2.65136225	     83.81773451	     -8.78792087	     19.98537296	     67.48568243	    108.73602266	      1.06895724	     10.94793710	     33.53924462	     86.33286958	    -21.55539211	     24.37827077	     71.41922008	    100.77789681	     -4.98186037	      7.82025649	     24.96342725
      0.62750000	      0.81922422	    -16.65189754	     89.94315525	      0.04671735	      1.90135499	      1.32187533	     56.21955363	      3.20092268	      1.05284535	    -79.79663443	     -6.59067324	    -13.93668311	      9.89173943	     60.21825711	     -9.28471600	     -4.41682061	    -72.80815543	     -7.90372276	     -3.18752296	     27.60583357	    -37.27833090	     -1.22529148	      0.18463703	     13.46071285	     -0.88704013	      2.59407986	     82.84979280	     -9.15840393	     20.11323104	     67.75821378	    108.65901220	      1.02328368	     11.09941757	     33.28257225	     85.41746507	    -21.61557840	     24.09622210	     71.51358104	    100.79206830	     -5.14231306	      7.93106400	     24.86407915
      0.63000000	      0.81501217	    -16.60902869	     89.88969352	      0.04657667	      1.89955382	      1.31778454	     56.36576897	      3.16368404	      0.90219989	    -79.02111674	     -6.65896061	    -13.81294506	      9.94998543	     60.10887363	     -9.30595888	     -4.53065055	    -72.00760301	     -7.94331562	     -3.13266278	     27.60844628	    -37.33840493	     -1.26205497	      0.20825509	     13.39513367	     -0.86820185	      2.58467738	     82.08499389	     -9.43101457	     20.31215212	     67.73386505	    108.65000300	      1.10687884	     11.14746424	     33.29101773	     84.77936757	    -21.93450546	     24.25903304	     71.48421076	    100.80947797	     -5.06828980	      7.96334225	     24.89158240
      0.63250000	      0.75867980	    -16.53860148	     89.79793448	      0.04658303	      1.89760455	      1.31333358	     56.49855016	      3.11390804	      0.79062542	    -78.34392435	     -6.83839298	    -13.53111047	     10.10519692	     59.96822699	     -9.33565417	     -4.69684661	    -71.26092030	     -8.18035571	     -2.91792393	     27.61544031	    -37.39893161	     -1.38112437	      0.20920729	     13.25802280	     -0.84875786	      2.57260439	     81.12988587	     -9.78912198	     20.47961013	     67.98785683	    108.62290816	      1.15459682	     11.17342508	     33.25067193	     83.96528670	    -22.29177233	     24.29423505	     71.65853963	    100.81205195	     -5.04309618	      7.94100583	     24.89926160
      0.63500000	      0.73373241	    -16.51520826	     89.73404607	      0.04653431	      1.89573002	      1.30929106	     56.63138844	      3.09465573	      0.68378279	    -77.52799382	     -6.92937785	    -13.35689682	     10.17649344	     59.86463916	     -9.33771598	     -4.79512400	    -70.40914176	     -8.30258495	     -2.77866922	     27.61772452	    -37.44693044	     -1.44920071	      0.23259436	     13.23326220	     -0.83348644	      2.56611038	     80.35576985	    -10.08313930	     20.63402540	     67.97892202	    108.62782533	      1.20171133	     11.22484518	     33.23952064	     83.28312643	    -22.58572004	     24.38739212	     71.62179695	    100.82846024	     -5.00887811	      7.95891195	     24.90867785
      0.63750000	      0.52887935	    -16.51562765	     89.53734131	      0.04651973	      1.89367937	      1.30492789	     56.83150537	      3.00346076	      0.78648902	    -76.82539814	     -7.13981737	    -12.77544524	     10.65416212	     59.75194848	     -9.31741911	     -5.06349204	    -69.61574195	     -8.80619390	     -2.21937707	     27.64287808	    -37.45149935	     -1.73516848	      0.24512912	     13.25620577	     -0.79613224	      2.52447729	     79.30463795	    -10.46559306	     20.67472238	     68.32877391	    108.73009580	      1.07438889	     11.34752708	     32.98833487	     82.35522481	    -22.76021100	     24.15708641	     71.78640985	    100.98523029	     -5.11853539	      7.89804080	     24.79848587
      0.64000000	      0.52476900	    -16.47542851	     89.49304807	      0.04643930	      1.89162203	      1.30074090	     56.93043454	      2.97451918	      0.63118888	    -76.02562410	     -7.23390409	    -12.64027989	     10.71275139	     59.61195145	     -9.33235686	     -5.16792815	    -68.76457125	     -8.84487504	     -2.14868135	     27.64554610	    -37.48673997	     -1.77009945	      0.25853597	     13.14925444	     -0.78470449	      2.51559750	     78.47788111	    -10.78914429	     20.86556810	     68.35487170	    108.74528568	      1.15725085	     11.39271142	     33.00129707	     81.65906408	    -23.13854351	     24.31872012	     71.77107013	    101.03605457	     -5.03550138	      7.92054094	     24.81907236
      0.64250000	      0.46858829	    -16.38698820	     89.42831345	      0.04637533	      1.88942892	      1.29616934	     57.00733430	      2.90795018	      0.51812837	    -75.33595133	     -7.48809664	    -12.32556165	     10.87205746	     59.43884888	     -9.33928510	     -5.32463485	    -68.02555184	     -9.07249538	     -1.90090365	     27.65301489	    -37.55388875	     -1.86383623	      0.24682139	     12.99790189	     -0.78056394	      2.50327581	     77.44773072	    -11.19540242	     20.96867303	     68.69340990	    108.80526744	      1.18093195	     11.41189989	     32.96256572	     80.78649449	    -23.55313198	     24.36063756	     71.97536577	    101.16143903	     -4.99298260	      7.87321953	     24.78972658
      0.64500000	      0.45010439	    -16.36968921	     89.37576085	      0.04629685	      1.88729066	      1.29205584	     57.08175731	      2.88539477	      0.40601214	    -74.45978164	     -7.60470580	    -12.15147554	     10.93025230	     59.30728074	     -9.33012727	     -5.39805637	    -67.14561741	     -9.16738423	     -1.77074875	     27.65459749	    -37.57595278	     -1.91710614	      0.26039618	     12.95487555	     -0.77692526	      2.49837391	     76.60412804	    -11.52273837	     21.10895118	     68.72330235	    108.84903823	      1.23088565	     11.45626902	     32.96555517	     80.06658134	    -23.89490190	     24.47835224	     71.95486881	    101.23683532	     -4.94047925	      7.88500011	     24.78565899
      0.64750000	      0.25579387	    -16.35602735	     89.21237103	      0.04628771	      1.88500458	      1.28754947	     57.23819118	      2.78150631	      0.48891633	    -73.77135734	     -7.86289924	    -11.50311683	     11.54186674	     59.12037600	     -9.32296807	     -5.69600195	    -66.27764723	     -9.62156265	     -1.14323248	     27.68561785	    -37.59368161	     -2.18172905	      0.27608259	     13.06824271	     -0.72732392	      2.42340874	     75.41304666	    -11.91460510	     20.94870711	     69.24036883	    109.33777317	      1.06401590	     11.57872860	     32.69314940	     79.06597701	    -24.05239961	     24.19264974	     72.14822878	    101.92381626	     -4.98548321	      7.77876482	     24.48119532
      0.65000000	      0.25037466	    -16.31791986	     89.17300085	      0.04623553	      1.88267691	      1.28327101	     57.26001692	      2.75950208	      0.33613363	    -72.89113927	     -7.99946788	    -11.36891746	     11.58794346	     58.98062162	     -9.32168854	     -5.78087696	    -65.46763765	     -9.65013639	     -1.09008114	     27.68744157	    -37.61369953	     -2.22566268	      0.28538523	     12.90379295	     -0.73593186	      2.42603469	     74.52474184	    -12.29461183	     21.10598790	     69.33691124	    109.35893584	      1.15963842	     11.59601251	     32.72577047	     78.30617880	    -24.47504149	     24.36342778	     72.19221132	    101.99830060	     -4.86937912	      7.78750413	     24.49769224
      0.65250000	      0.23154612	    -16.23111873	     89.12083500	      0.04613392	      1.88020545	      1.27863930	     57.28837563	      2.71774463	      0.20584298	    -72.16779661	     -8.31680373	    -11.07349599	     11.71281515	     58.78566453	     -9.36320352	     -5.93959107	    -64.71271947	     -9.86266291	     -0.87797185	     27.69134622	    -37.67288409	     -2.27687590	      0.30970588	     12.78660438	     -0.75956462	      2.42819418	     73.41580102	    -12.72222251	     21.11200903	     69.73039958	    109.43052539	      1.17217145	     11.55437144	     32.71480812	     77.38220630	    -24.89362756	     24.37863895	     72.42335015	    102.16850092	     -4.78898567	      7.73075721	     24.45303203
